<?xml version="1.0" standalone="no"?>
<svg width="567.429" height="387.116" viewBox="0 0 567.429 387.116" xmlns="http://www.w3.org/2000/svg" shape-rendering="crispEdges">
<title>
plot.svg
</title>
<desc>
Creator: ROOT Version 6.36.000
CreationDate: Tue Nov 11 11:54:37 2025</desc>
<defs>
</defs>
<rect x="0.5" y="0" width="566.929" height="386.616" fill="white"/>
<rect x="57.1929" y="38.6616" width="453.543" height="309.293" fill="white"/>
<rect x="57.1929" y="38.6616" width="453.543" height="309.293" fill="none" stroke="black"/>
<path d="M57.1929,347.955h 453.543" fill="none" stroke="black"/>
<path d="M57.1929,338.676v 9.27879" fill="none" stroke="black"/>
<path d="M78.0168,343.315v 4.6394" fill="none" stroke="black"/>
<path d="M98.8406,343.315v 4.6394" fill="none" stroke="black"/>
<path d="M119.664,343.315v 4.6394" fill="none" stroke="black"/>
<path d="M140.488,338.676v 9.27879" fill="none" stroke="black"/>
<path d="M161.312,343.315v 4.6394" fill="none" stroke="black"/>
<path d="M182.136,343.315v 4.6394" fill="none" stroke="black"/>
<path d="M202.96,343.315v 4.6394" fill="none" stroke="black"/>
<path d="M223.784,338.676v 9.27879" fill="none" stroke="black"/>
<path d="M244.607,343.315v 4.6394" fill="none" stroke="black"/>
<path d="M265.431,343.315v 4.6394" fill="none" stroke="black"/>
<path d="M286.255,343.315v 4.6394" fill="none" stroke="black"/>
<path d="M307.079,338.676v 9.27879" fill="none" stroke="black"/>
<path d="M327.903,343.315v 4.6394" fill="none" stroke="black"/>
<path d="M348.727,343.315v 4.6394" fill="none" stroke="black"/>
<path d="M369.551,343.315v 4.6394" fill="none" stroke="black"/>
<path d="M390.374,338.676v 9.27879" fill="none" stroke="black"/>
<path d="M411.198,343.315v 4.6394" fill="none" stroke="black"/>
<path d="M432.022,343.315v 4.6394" fill="none" stroke="black"/>
<path d="M452.846,343.315v 4.6394" fill="none" stroke="black"/>
<path d="M473.67,338.676v 9.27879" fill="none" stroke="black"/>
<path d="M473.67,338.676v 9.27879" fill="none" stroke="black"/>
<path d="M494.494,343.315v 4.6394" fill="none" stroke="black"/>
<text xml:space="preserve" x="53.2943" y="360.625" fill="black" font-size="12.9143" font-family="Helvetica">0
</text>
<text xml:space="preserve" x="132.892" y="360.625" fill="black" font-size="12.9143" font-family="Helvetica">20
</text>
<text xml:space="preserve" x="216.55" y="360.625" fill="black" font-size="12.9143" font-family="Helvetica">40
</text>
<text xml:space="preserve" x="299.397" y="360.625" fill="black" font-size="12.9143" font-family="Helvetica">60
</text>
<text xml:space="preserve" x="383.055" y="360.625" fill="black" font-size="12.9143" font-family="Helvetica">80
</text>
<text xml:space="preserve" x="463.465" y="360.625" fill="black" font-size="12.9143" font-family="Helvetica">100
</text>
<text xml:space="preserve" x="426.103" y="373.621" fill="black" font-size="12.9143" font-family="Helvetica">Epoch number
</text>
<path d="M57.1929,347.955v -309.293" fill="none" stroke="black"/>
<path d="M70.7992,338.517h -13.6063" fill="none" stroke="black"/>
<path d="M63.9961,330.219h -6.80315" fill="none" stroke="black"/>
<path d="M63.9961,321.921h -6.80315" fill="none" stroke="black"/>
<path d="M63.9961,313.623h -6.80315" fill="none" stroke="black"/>
<path d="M63.9961,305.325h -6.80315" fill="none" stroke="black"/>
<path d="M70.7992,297.027h -13.6063" fill="none" stroke="black"/>
<path d="M63.9961,288.728h -6.80315" fill="none" stroke="black"/>
<path d="M63.9961,280.43h -6.80315" fill="none" stroke="black"/>
<path d="M63.9961,272.132h -6.80315" fill="none" stroke="black"/>
<path d="M63.9961,263.834h -6.80315" fill="none" stroke="black"/>
<path d="M70.7992,255.536h -13.6063" fill="none" stroke="black"/>
<path d="M63.9961,247.238h -6.80315" fill="none" stroke="black"/>
<path d="M63.9961,238.94h -6.80315" fill="none" stroke="black"/>
<path d="M63.9961,230.642h -6.80315" fill="none" stroke="black"/>
<path d="M63.9961,222.343h -6.80315" fill="none" stroke="black"/>
<path d="M70.7992,214.045h -13.6063" fill="none" stroke="black"/>
<path d="M63.9961,205.747h -6.80315" fill="none" stroke="black"/>
<path d="M63.9961,197.449h -6.80315" fill="none" stroke="black"/>
<path d="M63.9961,189.151h -6.80315" fill="none" stroke="black"/>
<path d="M63.9961,180.853h -6.80315" fill="none" stroke="black"/>
<path d="M70.7992,172.555h -13.6063" fill="none" stroke="black"/>
<path d="M63.9961,164.256h -6.80315" fill="none" stroke="black"/>
<path d="M63.9961,155.958h -6.80315" fill="none" stroke="black"/>
<path d="M63.9961,147.66h -6.80315" fill="none" stroke="black"/>
<path d="M63.9961,139.362h -6.80315" fill="none" stroke="black"/>
<path d="M70.7992,131.064h -13.6063" fill="none" stroke="black"/>
<path d="M63.9961,122.766h -6.80315" fill="none" stroke="black"/>
<path d="M63.9961,114.468h -6.80315" fill="none" stroke="black"/>
<path d="M63.9961,106.17h -6.80315" fill="none" stroke="black"/>
<path d="M63.9961,97.8714h -6.80315" fill="none" stroke="black"/>
<path d="M70.7992,89.5733h -13.6063" fill="none" stroke="black"/>
<path d="M63.9961,81.2752h -6.80315" fill="none" stroke="black"/>
<path d="M63.9961,72.977h -6.80315" fill="none" stroke="black"/>
<path d="M63.9961,64.6789h -6.80315" fill="none" stroke="black"/>
<path d="M63.9961,56.3808h -6.80315" fill="none" stroke="black"/>
<path d="M70.7992,48.0826h -13.6063" fill="none" stroke="black"/>
<path d="M70.7992,338.517h -13.6063" fill="none" stroke="black"/>
<path d="M63.9961,346.815h -6.80315" fill="none" stroke="black"/>
<path d="M70.7992,48.0826h -13.6063" fill="none" stroke="black"/>
<path d="M63.9961,39.7845h -6.80315" fill="none" stroke="black"/>
<text xml:space="preserve" x="21.6177" y="343.569" fill="black" font-size="12.9143" font-family="Helvetica">0.065
</text>
<text xml:space="preserve" x="28.9277" y="302.146" fill="black" font-size="12.9143" font-family="Helvetica">0.07
</text>
<text xml:space="preserve" x="21.6177" y="260.722" fill="black" font-size="12.9143" font-family="Helvetica">0.075
</text>
<text xml:space="preserve" x="28.9277" y="219.299" fill="black" font-size="12.9143" font-family="Helvetica">0.08
</text>
<text xml:space="preserve" x="21.6177" y="177.064" fill="black" font-size="12.9143" font-family="Helvetica">0.085
</text>
<text xml:space="preserve" x="28.9277" y="135.641" fill="black" font-size="12.9143" font-family="Helvetica">0.09
</text>
<text xml:space="preserve" x="21.6177" y="94.2174" fill="black" font-size="12.9143" font-family="Helvetica">0.095
</text>
<text xml:space="preserve" x="38.6743" y="52.7943" fill="black" font-size="12.9143" font-family="Helvetica">0.1
</text>
<g transform="rotate(-90,9.43441,66.602)">
<text xml:space="preserve" x="9.43441" y="66.602" fill="black" font-size="12.9143" font-family="Helvetica">Loss
</text>
</g>
<text xml:space="preserve" x="257.974" y="19.4933" fill="black" font-size="18.7414" font-family="Helvetica">Graph
</text>
<path d="M57.1929,64.4361l 4.16477, 112.678l 4.16477, 2.67836l 4.16477, 1.93608l 4.16477, 1.25414l 4.16477, 0.804973l 4.16477, 1.13599l 4.16477, 0.916507l 4.16477, 0.627966l 4.16477, 1.14106l 4.16477, 0.317785l 4.16477, 0.946925l 4.16477, 1.17976l
 4.16477, 1.15138l 4.16477, 0.711245l 4.16477, 0.980744l 4.16477, 0.268448l 4.16477, 1.76698l 4.16477, 0.428886l 4.16477, -0.173298l 4.16477, 0.563543l 4.16477, 1.19701l 4.16477, 1.2887l 4.16477, 1.10718l 4.16477, 2.1304l 4.16477, 1.83549l 4.16477,
 -0.804108l 4.16477, -1.33575l 4.16477, -4.91021l 4.16477, 6.77531l 4.16477, 2.60819l 4.16477, 0.263255l 4.16477, 2.87039l 4.16477, 1.85026l 4.16477, 2.08582l 4.16477, -3.09742l 4.16477, 2.3704l 4.16477, 6.93575l 4.16477, -2.94025l 4.16477, 3.73336l
 4.16477, 2.13497l 4.16477, 0.344927l 4.16477, 2.25504l 4.16477, 0.191969l 4.16477, -1.55597l 4.16477, 4.96592l 4.16477, 0.500913l 4.16477, -1.58658l 4.16477, 1.00968l 4.16477, 10.3219l 4.16477, 2.00334l 4.16477, 1.70992l 4.16477, 1.56914l 4.16477,
 0.13342l 4.16477, 0.486322l 4.16477, 5.80823l 4.16477, 2.94977l 4.16477, 1.46731l 4.16477, -1.86776l 4.16477, 3.82381l 4.16477, 9.27901l 4.16477, -0.300536l 4.16477, -2.92659l 4.16477, 2.79688l 4.16477, 2.54698l 4.16477, -2.34493l 4.16477, 0.396737l
 4.16477, 6.179l 4.16477, -3.22218l 4.16477, 5.23313l 4.16477, 4.38778l 4.16477, -2.99206l 4.16477, 6.52628l 4.16477, 1.26187l 4.16477, -3.13433l 4.16477, 3.59796l 4.16477, 2.63558l 4.16477, -4.1594l 4.16477, 6.64937l 4.16477, -2.93951l 4.16477,
 4.0755l 4.16477, -0.493865l 4.16477, 5.83037l 4.16477, -2.7136l 4.16477, 4.02474l 4.16477, 5.81862l 4.16477, -1.53569l 4.16477, 5.10373l 4.16477, 0.646451l 4.16477, -3.44203l 4.16477, 7.19017l 4.16477, -0.636065l 4.16477, 6.91937l 4.16477, -6.82836l
 4.16477, -2.7212l 4.16477, -11.2396l 4.16477, 4.07179l 4.16477, 14.1437l 4.16477, 6.86366l 4.16477, 1.24993" fill="none" stroke="black"/>
<text xml:space="preserve" x="257.974" y="19.4933" fill="black" font-size="18.7414" font-family="Helvetica">Graph
</text></svg>
